<svg width="16" height="16" viewBox="0 0 16 16" fill="none" xmlns="http://www.w3.org/2000/svg">
<g clip-path="url(#clip0_220_5492)">
<path d="M14.5267 12.4689C14.2847 13.0279 13.9983 13.5424 13.6665 14.0155C13.2141 14.6604 12.8438 15.1068 12.5583 15.3547C12.1159 15.7616 11.6418 15.97 11.1342 15.9818C10.7698 15.9818 10.3303 15.8781 9.81867 15.6678C9.30541 15.4584 8.83372 15.3547 8.40242 15.3547C7.95009 15.3547 7.46497 15.4584 6.94607 15.6678C6.42639 15.8781 6.00773 15.9878 5.68764 15.9986C5.20085 16.0194 4.71563 15.8051 4.2313 15.3547C3.92217 15.0851 3.53552 14.6229 3.07232 13.9681C2.57535 13.2688 2.16677 12.458 1.84668 11.5336C1.50388 10.5351 1.33203 9.56821 1.33203 8.63214C1.33203 7.55987 1.56373 6.63506 2.02781 5.86007C2.39254 5.23757 2.87776 4.74653 3.48505 4.38604C4.09234 4.02556 4.74851 3.84186 5.45516 3.83011C5.84181 3.83011 6.34886 3.94971 6.97896 4.18477C7.60729 4.42061 8.01073 4.54021 8.18761 4.54021C8.31986 4.54021 8.76804 4.40036 9.52782 4.12156C10.2463 3.863 10.8527 3.75594 11.3495 3.79811C12.6956 3.90675 13.7069 4.4374 14.3795 5.39342C13.1756 6.12288 12.5801 7.14458 12.5919 8.45525C12.6028 9.47616 12.9731 10.3257 13.701 11.0003C14.0309 11.3133 14.3993 11.5553 14.8091 11.7272C14.7202 11.9849 14.6264 12.2318 14.5267 12.4689ZM11.4394 0.320091C11.4394 1.12027 11.147 1.8674 10.5643 2.55894C9.86114 3.38104 9.0106 3.85608 8.08826 3.78112C8.07651 3.68513 8.06969 3.58409 8.06969 3.47792C8.06969 2.70975 8.4041 1.88765 8.99796 1.21547C9.29444 0.875136 9.67152 0.592152 10.1288 0.36641C10.5851 0.144037 11.0167 0.0210593 11.4226 0C11.4344 0.106972 11.4394 0.213951 11.4394 0.320081V0.320091Z" fill="black"/>
</g>
<defs>
<clipPath id="clip0_220_5492">
<rect width="16" height="16" fill="white"/>
</clipPath>
</defs>
</svg>
